<svg width="482" height="521" viewBox="0 0 482 521" fill="none" xmlns="http://www.w3.org/2000/svg">
<path fill-rule="evenodd" clip-rule="evenodd" d="M145.34 55.2899C165.09 21.0799 201.59 0 241.09 0C280.59 0 317.09 21.0799 336.84 55.2899L341.43 63.23C345.56 70.38 353.18 74.78 361.44 74.78H370.62C410.12 74.78 446.62 95.8599 466.37 130.07C486.12 164.28 486.12 206.42 466.37 240.63L461.78 248.58C457.65 255.73 457.65 264.53 461.78 271.68L466.37 279.63C486.12 313.84 486.12 355.99 466.37 390.2C446.62 424.4 410.12 445.48 370.62 445.48H361.44C353.18 445.48 345.56 449.88 341.43 457.03L336.84 464.98C317.09 499.19 280.59 520.26 241.09 520.26C201.59 520.26 165.09 499.19 145.34 464.98L140.75 457.03C136.62 449.88 129 445.48 120.74 445.48H111.57C72.0701 445.48 35.5601 424.4 15.8101 390.2C-3.93994 355.99 -3.93994 313.84 15.8101 279.63L20.4 271.68C24.53 264.53 24.53 255.73 20.4 248.58L15.8101 240.63C-3.93994 206.42 -3.93994 164.28 15.8101 130.07C35.5601 95.8599 72.0701 74.78 111.57 74.78H120.74C129 74.78 136.62 70.38 140.75 63.23L145.34 55.2899ZM336.14 375.59L316.22 388.79L310.96 380.85L333.5 365.91L325.81 354.3L289.26 378.52L322.52 428.7L359.07 404.48L351.12 392.49L328.58 407.44L323.17 399.27L343.09 386.07L336.14 375.59ZM209.95 65.46L201.62 66.7999L183.83 131.54L203.17 128.43L204.81 119.97L223.61 116.95L227.83 124.46L247.16 121.34L209.95 65.46ZM210.1 92.91L216.59 104.43L207.55 105.88L210.1 92.91ZM165.61 395.97L147.89 384L153.62 375.51L175.06 390L183.36 377.72L148 353.82L114.3 403.7L128.22 413.1L139.59 396.28L157.31 408.25L165.61 395.97ZM213.19 338.03C224.62 353.24 245.48 357.76 262.18 348.65L304.89 325.36C321.69 316.2 329.16 296.06 322.4 278.16L318.93 268.96C316.09 272.34 312.32 275.01 307.84 276.55C300.66 279.01 293.14 278.04 287.06 274.51C286.34 274.09 285.49 273.98 284.69 274.2C283.89 274.43 283.22 274.96 282.82 275.69C279.92 281.01 275.09 285.31 268.9 287.43C260.74 290.23 252.13 288.59 245.69 283.8L238.02 312.44C237.67 313.74 236.81 314.85 235.64 315.51C234.47 316.18 233.08 316.36 231.78 315.99C229.16 315.26 227.62 312.56 228.33 309.94L241.01 262.61C241.66 260.17 241.93 257.68 241.84 255.21C241.68 251.22 240.56 247.28 238.53 243.76C238.18 243.16 237.81 242.57 237.41 242C237.35 241.91 237.28 241.82 237.22 241.73C234.5 237.93 230.76 234.97 226.45 233.21C225.49 232.81 224.5 232.48 223.49 232.2L223.45 232.19C218.8 230.95 214.03 233.71 212.78 238.35L201.32 281.12C200.91 282.64 199.89 283.93 198.49 284.66C197.09 285.39 195.45 285.5 193.97 284.96H193.96C191.89 284.21 190.73 281.99 191.3 279.86L203.11 235.76C205.28 227.69 212.4 222.27 220.32 221.93C221.05 221.9 221.72 221.54 222.15 220.96C222.58 220.37 222.72 219.62 222.53 218.92L208.16 166.6C206.85 161.82 203.69 157.76 199.38 155.31C195.07 152.86 189.97 152.22 185.19 153.53C180.41 154.84 176.35 158 173.9 162.3C171.44 166.61 170.8 171.72 172.12 176.5L189.21 238.77C189.45 239.63 189.04 240.53 188.25 240.92C187.45 241.31 186.48 241.08 185.95 240.37L149.93 192.46C146.99 188.55 142.62 185.97 137.77 185.28C132.93 184.59 128.01 185.86 124.1 188.8H124.09C120.18 191.74 117.6 196.12 116.91 200.96C116.22 205.81 117.49 210.73 120.43 214.64L213.19 338.03ZM284.87 404.56L261.42 409.18L259.58 399.83L286.11 394.61L283.43 380.95L240.41 389.41L252.03 448.47L295.05 440.01L292.27 425.91L265.74 431.13L263.85 421.52L287.3 416.91L284.87 404.56ZM212.36 385.2L187.02 380.42L175.87 439.58L192.38 442.69L196.8 419.21L208.18 445.67L228.31 449.47L216.07 424.67C220.16 424.34 223.72 422.97 226.77 420.56C229.81 418.15 231.75 414.73 232.58 410.32C233.24 406.84 233.12 403.68 232.22 400.83C231.33 397.98 229.89 395.49 227.92 393.35C225.95 391.21 223.61 389.46 220.91 388.09C218.21 386.73 215.36 385.77 212.36 385.2ZM200.62 398.99L207.5 400.29C210.09 400.77 212.18 401.58 213.77 402.7C215.35 403.82 215.92 405.59 215.46 408C215.07 410.12 213.9 411.53 211.97 412.24C210.04 412.94 207.78 413.05 205.19 412.56C203.89 412.31 202.69 411.97 201.59 411.51C200.49 411.06 199.47 410.57 198.54 410.02L200.62 398.99ZM314.31 256.72C315.08 253.9 315.04 250.81 314.02 247.83L304.44 219.89C302.15 213.2 294.88 209.64 288.2 211.93L283.72 213.47C277.2 215.7 273.65 222.68 275.61 229.22C275.66 229.38 275.71 229.55 275.77 229.71L285.34 257.66C288.06 265.57 296.68 269.79 304.59 267.08C309.53 265.39 313.03 261.4 314.31 256.72ZM288.76 117.83L278.86 115.56L285.69 85.7899L295.59 88.0599L298.9 73.61L262.74 65.3199L259.42 79.76L269.32 82.03L262.49 111.81L252.59 109.54L249.28 123.99L285.44 132.28L288.76 117.83ZM262.25 221.26C259.96 214.58 252.68 211.02 246 213.31L241.52 214.85C237.71 216.15 234.92 219.08 233.64 222.59C233.12 223.99 233.68 225.57 234.98 226.32C239.98 229.33 244.2 233.58 247.18 238.73L247.2 238.76C251.82 246.76 253.07 256.27 250.68 265.2C250.68 265.2 250.2 266.97 249.72 268.81C248.92 271.81 250.2 274.98 252.87 276.58C256.58 278.83 261.23 279.48 265.65 277.96C273.57 275.25 277.79 266.63 275.08 258.71L262.25 221.26Z" fill="black"/>
</svg>
