<svg width="875" height="259" viewBox="0 0 875 259" fill="none" xmlns="http://www.w3.org/2000/svg">
<path fill-rule="evenodd" clip-rule="evenodd" d="M154.87 35.81H763.22C792.69 35.81 820.95 47.51 841.78 68.35C862.62 89.18 874.33 117.44 874.33 146.91C874.33 176.38 862.62 204.64 841.78 225.48C820.95 246.31 792.69 258.02 763.22 258.02H111.41C81.94 258.02 53.6801 246.31 32.8501 225.48C12.0101 204.64 0.310059 176.38 0.310059 146.91C0.310059 120.82 9.48005 95.6799 26.05 75.7899C25.42 72.3199 25.3501 68.74 25.8501 65.18C27.0901 56.41 31.7701 48.5 38.8501 43.18C45.9201 37.86 54.8301 35.56 63.5901 36.8C68.2001 37.46 72.5701 39.06 76.4501 41.45C79.6601 40.39 82.9301 39.47 86.2301 38.7C85.3401 31.53 86.76 24.22 90.38 17.86C94.79 10.11 102.11 4.41997 110.71 2.05997C119.32 -0.300031 128.51 0.850042 136.26 5.26004C144.02 9.68004 149.7 16.99 152.07 25.6L154.87 35.81ZM57.9801 49.5C53.9101 49.68 49.96 51.08 46.66 53.57C43.87 55.66 41.69 58.42 40.29 61.55C39.52 63.27 38.9901 65.1 38.7201 67C37.9601 72.36 39.3601 77.79 42.6101 82.11L145.09 218.43C157.72 235.23 180.76 240.23 199.21 230.16L246.4 204.44C264.96 194.32 273.21 172.07 265.74 152.29L261.9 142.12C258.76 145.86 254.6 148.81 249.65 150.51C241.62 153.26 233.2 152.14 226.44 148.11C225.72 147.67 224.85 147.56 224.04 147.78C223.23 148.01 222.55 148.56 222.16 149.3C218.97 155.3 213.57 160.15 206.63 162.53C197.62 165.62 188.1 163.81 181 158.51L172.51 190.17C172.13 191.61 171.19 192.83 169.9 193.57C168.61 194.3 167.08 194.49 165.65 194.09H165.64C162.74 193.28 161.03 190.29 161.81 187.38L175.82 135.1C176.54 132.42 176.84 129.66 176.73 126.93C176.56 122.52 175.33 118.18 173.08 114.29C172.69 113.62 172.28 112.97 171.85 112.34C171.77 112.24 171.7 112.14 171.63 112.04C168.63 107.84 164.5 104.58 159.73 102.62C158.67 102.19 157.58 101.82 156.46 101.52L156.42 101.51C151.29 100.13 146.01 103.18 144.64 108.31L131.89 155.88C131.46 157.48 130.38 158.82 128.91 159.59C127.44 160.36 125.72 160.48 124.16 159.91C121.68 159.02 120.31 156.38 120.99 153.84L133.95 105.45C136.37 96.44 144.38 90.3901 153.24 90.1501C153.98 90.1301 154.66 89.78 155.1 89.19C155.53 88.6 155.68 87.85 155.48 87.14L139.53 29.0399C138.08 23.7599 134.59 19.27 129.83 16.56C125.07 13.86 119.43 13.15 114.15 14.6C108.87 16.05 104.38 19.5399 101.68 24.2899C99.5601 28.0199 98.6601 32.28 99.0701 36.49C99.1801 37.66 99.4001 38.83 99.7101 39.97L118.87 109.75C119.11 110.61 118.7 111.51 117.9 111.91C117.1 112.3 116.14 112.07 115.61 111.36L75.2001 57.61C71.9501 53.29 67.12 50.44 61.77 49.68C60.51 49.5 59.2401 49.44 57.9801 49.5ZM770.98 133.79H739.83V121.38H775.08V103.22H717.92V181.7H775.08V162.96H739.83V150.19H770.98V133.79ZM384.68 102.05H373.67L337.35 181.7H362.89L366.75 171.16H391.59L395.45 181.7H420.99L384.68 102.05ZM379.17 137.42L385.15 153.59H373.2L379.17 137.42ZM609.38 103.22H575.76V181.7H597.66V150.55L618.63 181.7H645.34L623.67 152.89C628.82 151.48 633.06 148.87 636.38 145.04C639.7 141.21 641.36 136.37 641.36 130.51C641.36 125.91 640.44 121.89 638.6 118.45C636.77 115.01 634.33 112.16 631.28 109.9C628.24 107.63 624.82 105.96 621.03 104.86C617.25 103.77 613.36 103.22 609.38 103.22ZM597.66 123.72H606.8C610.24 123.72 613.11 124.25 615.41 125.3C617.71 126.36 618.87 128.48 618.87 131.69C618.87 134.5 617.71 136.59 615.41 137.95C613.11 139.32 610.24 140 606.8 140C605.08 140 603.46 139.85 601.94 139.53C600.42 139.22 598.99 138.83 597.66 138.36V123.72ZM559.56 135.9H531.68V122.55H565.41V103.22H509.77V181.7H531.68V155.23H559.56V135.9ZM702.31 133.79H671.15V121.38H706.4V103.22H649.24V181.7H706.4V162.96H671.15V150.19H702.31V133.79ZM471.51 162.38H458.28V122.55H471.51V103.22H423.14V122.55H436.37V162.38H423.14V181.7H471.51V162.38ZM256.8 128.61C257.65 125.48 257.61 122.08 256.48 118.78L245.9 87.9101C243.37 80.5301 235.33 76.59 227.95 79.12L223.01 80.82C215.81 83.28 211.89 90.99 214.05 98.22C214.1 98.4 214.16 98.58 214.22 98.76L224.8 129.64C227.8 138.38 237.32 143.05 246.07 140.05C251.52 138.18 255.39 133.78 256.8 128.61ZM182.64 108.73L182.66 108.76C187.76 117.6 189.14 128.11 186.5 137.97C186.5 137.97 185.9 140.29 185.32 142.5C184.58 145.37 185.71 148.39 188.17 150.05C192.4 152.9 197.85 153.85 203.05 152.07C211.8 149.07 216.46 139.55 213.46 130.8L199.28 89.43C196.75 82.05 188.72 78.12 181.34 80.64L176.39 82.34C172.06 83.82 168.91 87.2 167.56 91.23C167.45 91.55 167.4 91.88 167.4 92.2C167.39 93.28 167.96 94.32 168.94 94.89C174.59 98.19 179.31 102.97 182.64 108.73Z" fill="black"/>
</svg>
