<svg width="754" height="522" viewBox="0 0 754 522" fill="none" xmlns="http://www.w3.org/2000/svg">
<path fill-rule="evenodd" clip-rule="evenodd" d="M141.28 365.39H105.75C47.8 365.39 0.830078 318.41 0.830078 260.47C0.830078 202.52 47.8 155.55 105.75 155.55H141.51C143.97 147.01 147.47 138.7 152.03 130.81C171.78 96.5999 208.28 75.53 247.78 75.53H256.96C265.21 75.53 272.83 71.13 276.96 63.98L281.55 56.03C301.3 21.82 337.8 0.75 377.3 0.75C416.81 0.75 453.31 21.82 473.06 56.03L477.65 63.98C481.77 71.13 489.4 75.53 497.65 75.53H506.83C546.33 75.53 582.83 96.5999 602.58 130.81C607.14 138.7 610.64 147.01 613.09 155.55H648.86C706.8 155.55 753.77 202.52 753.77 260.47C753.77 318.41 706.8 365.39 648.86 365.39H613.33C610.86 374.21 607.28 382.8 602.58 390.94C582.83 425.15 546.33 446.22 506.83 446.22H497.65C489.4 446.22 481.77 450.63 477.65 457.77L473.06 465.72C453.31 499.93 416.81 521.01 377.3 521.01C337.8 521.01 301.3 499.93 281.55 465.72L276.96 457.77C272.83 450.63 265.21 446.22 256.96 446.22H247.78C208.28 446.22 171.78 425.15 152.03 390.94C147.33 382.8 143.75 374.21 141.28 365.39ZM648.86 175.55H105.75C58.85 175.55 20.8301 213.57 20.8301 260.47C20.8301 307.37 58.85 345.39 105.75 345.39H648.86C695.76 345.39 733.77 307.37 733.77 260.47C733.77 213.57 695.76 175.55 648.86 175.55ZM380.64 249.46V268.79H352.76V295.26H330.86V216.78H386.5V236.11H352.76V249.46H380.64ZM430.46 216.78C434.44 216.78 438.33 217.33 442.12 218.42C445.91 219.51 449.32 221.19 452.37 223.46C455.41 225.72 457.85 228.57 459.69 232.01C461.52 235.44 462.44 239.46 462.44 244.07C462.44 249.93 460.78 254.77 457.46 258.6C454.14 262.42 449.91 265.04 444.75 266.45L466.42 295.26H439.72L418.75 264.1V295.26H396.84V216.78H430.46ZM418.75 237.28V251.92C420.08 252.39 421.5 252.78 423.02 253.09C424.55 253.4 426.17 253.56 427.89 253.56C431.32 253.56 434.19 252.88 436.5 251.51C438.8 250.14 439.95 248.05 439.95 245.24C439.95 242.04 438.8 239.91 436.5 238.86C434.19 237.81 431.32 237.28 427.89 237.28H418.75ZM523.39 247.35V263.75H492.23V276.52H527.49V295.26H470.33V216.78H527.49V234.94H492.23V247.35H523.39ZM292.6 275.93V295.26H244.22V275.93H257.46V236.11H244.22V216.78H292.6V236.11H279.36V275.93H292.6ZM205.76 215.61L242.07 295.26H216.54L212.67 284.72H187.84L183.97 295.26H158.44L194.75 215.61H205.76ZM200.26 250.98L194.28 267.15H206.23L200.26 250.98ZM592.07 247.35V263.75H560.91V276.52H596.17V295.26H539.01V216.78H596.17V234.94H560.91V247.35H592.07ZM430.42 131.23C429.02 131.23 427.77 131.55 426.7 132.19C425.62 132.84 424.78 133.7 424.19 134.8C423.6 135.89 423.3 137.09 423.3 138.41C423.3 139.72 423.6 140.92 424.19 142.01C424.78 143.11 425.62 143.98 426.7 144.62C427.77 145.26 429.02 145.58 430.42 145.58C431.83 145.58 433.07 145.26 434.15 144.62C435.23 143.98 436.06 143.11 436.66 142.01C437.25 140.92 437.55 139.72 437.55 138.41C437.55 137.09 437.25 135.89 436.66 134.8C436.06 133.7 435.23 132.84 434.15 132.19C433.07 131.55 431.83 131.23 430.42 131.23ZM430.47 136.25C431.06 136.25 431.56 136.46 431.97 136.88C432.38 137.3 432.58 137.81 432.58 138.41C432.58 139 432.38 139.51 431.97 139.95C431.56 140.39 431.06 140.61 430.47 140.61C429.88 140.61 429.37 140.39 428.95 139.95C428.52 139.51 428.31 139 428.31 138.41C428.31 137.81 428.52 137.3 428.95 136.88C429.37 136.46 429.88 136.25 430.47 136.25ZM409.8 112.76C408.39 112.76 407.15 113.09 406.07 113.73C404.99 114.37 404.16 115.23 403.56 116.33C402.97 117.42 402.67 118.62 402.67 119.94C402.67 121.25 402.97 122.45 403.56 123.55C404.16 124.64 404.99 125.51 406.07 126.15C407.15 126.79 408.39 127.11 409.8 127.11C411.2 127.11 412.45 126.79 413.52 126.15C414.6 125.51 415.44 124.64 416.03 123.55C416.63 122.45 416.92 121.25 416.92 119.94C416.92 118.62 416.63 117.42 416.03 116.33C415.44 115.23 414.6 114.37 413.52 113.73C412.45 113.09 411.2 112.76 409.8 112.76ZM409.85 117.78C410.44 117.78 410.94 117.99 411.35 118.41C411.75 118.84 411.95 119.34 411.95 119.94C411.95 120.53 411.75 121.05 411.35 121.48C410.94 121.92 410.44 122.14 409.85 122.14C409.25 122.14 408.74 121.92 408.32 121.48C407.9 121.05 407.69 120.53 407.69 119.94C407.69 119.34 407.9 118.84 408.32 118.41C408.74 117.99 409.25 117.78 409.85 117.78ZM427.1 111.12L407.97 143.14L413.13 145.81L432.39 113.8L427.1 111.12ZM385.77 112.76C383.09 112.76 380.83 113.44 379 114.8C377.17 116.16 375.79 118.07 374.85 120.52C373.92 122.98 373.45 125.86 373.45 129.17C373.45 132.48 373.92 135.37 374.85 137.82C375.79 140.27 377.17 142.18 379 143.54C380.83 144.9 383.09 145.58 385.77 145.58C388.46 145.58 390.72 144.9 392.55 143.54C394.38 142.18 395.76 140.27 396.7 137.82C397.64 135.37 398.1 132.48 398.1 129.17C398.1 125.86 397.64 122.98 396.7 120.52C395.76 118.07 394.38 116.16 392.55 114.8C390.72 113.44 388.46 112.76 385.77 112.76ZM385.77 120.03C386.96 120.03 387.81 120.79 388.33 122.3C388.85 123.82 389.1 126.11 389.1 129.17C389.1 132.2 388.85 134.48 388.33 136.01C387.81 137.55 386.96 138.31 385.77 138.31C384.62 138.31 383.77 137.55 383.24 136.01C382.71 134.48 382.45 132.2 382.45 129.17C382.45 126.11 382.71 123.82 383.24 122.3C383.77 120.79 384.62 120.03 385.77 120.03ZM356.69 112.76C354 112.76 351.75 113.44 349.92 114.8C348.09 116.16 346.71 118.07 345.77 120.52C344.83 122.98 344.36 125.86 344.36 129.17C344.36 132.48 344.83 135.37 345.77 137.82C346.71 140.27 348.09 142.18 349.92 143.54C351.75 144.9 354 145.58 356.69 145.58C359.38 145.58 361.64 144.9 363.46 143.54C365.29 142.18 366.68 140.27 367.61 137.82C368.55 135.37 369.02 132.48 369.02 129.17C369.02 125.86 368.55 122.98 367.61 120.52C366.68 118.07 365.29 116.16 363.46 114.8C361.64 113.44 359.38 112.76 356.69 112.76ZM356.69 120.03C357.88 120.03 358.73 120.79 359.25 122.3C359.76 123.82 360.02 126.11 360.02 129.17C360.02 132.2 359.76 134.48 359.25 136.01C358.73 137.55 357.88 138.31 356.69 138.31C355.53 138.31 354.69 137.55 354.16 136.01C353.63 134.48 353.36 132.2 353.36 129.17C353.36 126.11 353.63 123.82 354.16 122.3C354.69 120.79 355.53 120.03 356.69 120.03ZM338.76 137.14H332.43V113.47H325.82C324.73 114.87 323.37 116.05 321.75 116.98C320.12 117.92 318.64 118.62 317.29 119.09V127.76C318.29 127.48 319.38 127.09 320.55 126.59C321.72 126.09 322.76 125.47 323.67 124.72V137.14H317.06V144.87H338.76V137.14ZM501.6 371.01C499.54 371.01 497.39 371.15 495.16 371.41C492.92 371.68 490.8 371.98 488.8 372.33V402.56C490.08 402.81 491.49 403.04 493.02 403.24C494.55 403.44 496.12 403.6 497.73 403.71C499.34 403.82 500.87 403.87 502.3 403.87C504.74 403.87 506.94 403.44 508.91 402.56C510.88 401.69 512.57 400.47 513.98 398.9C515.38 397.34 516.47 395.54 517.23 393.49C518 391.44 518.38 389.26 518.38 386.95C518.38 383.58 517.63 380.7 516.13 378.33C514.63 375.95 512.62 374.14 510.08 372.89C507.55 371.64 504.73 371.01 501.6 371.01ZM501.88 379.22C504.29 379.22 506.14 379.97 507.44 381.49C508.73 383.01 509.38 384.98 509.38 387.42C509.38 388.95 509.08 390.34 508.49 391.59C507.9 392.84 507.05 393.83 505.94 394.57C504.83 395.3 503.48 395.67 501.88 395.67C501.23 395.67 500.52 395.63 499.77 395.55C499.02 395.47 498.29 395.33 497.57 395.11V379.78C498.19 379.62 498.89 379.49 499.66 379.38C500.42 379.27 501.16 379.22 501.88 379.22ZM444.04 371.3H440.95L427.54 384.89L414.13 371.3H411.04V403.17H419.81V387.7L426.23 394.97H428.85L435.27 387.7V403.17H444.04V371.3ZM468.63 371.3H464.22L449.69 403.17H459.91L461.45 398.95H471.39L472.94 403.17H483.16L468.63 371.3ZM466.42 385.45L468.81 391.92H464.03L466.42 385.45ZM386.62 371.76H377.85V387.47L361.03 371.3H357.93V403.17H366.7V387.75L383.53 403.64H386.62V371.76ZM213.89 371.76H205.12V403.17H213.89V391.92H225.14V403.17H233.91V371.76H225.14V384.19H213.89V371.76ZM337.75 371.3H333.35L318.82 403.17H329.04L330.58 398.95H340.52L342.07 403.17H352.29L337.75 371.3ZM335.55 385.45L337.94 391.92H333.16L335.55 385.45ZM313.17 371.3H310.08L296.67 384.89L283.26 371.3H280.17V403.17H288.93V387.7L295.36 394.97H297.98L304.4 387.7V403.17H313.17V371.3ZM271.24 371.67H262.47V390.14C262.47 391.76 262.04 393.08 261.16 394.1C260.29 395.11 258.91 395.64 257.04 395.67C255.16 395.7 253.79 395.19 252.91 394.15C252.04 393.1 251.6 391.76 251.6 390.14V371.67H242.83V390.75C242.83 393.47 243.47 395.81 244.76 397.78C246.04 399.75 247.76 401.26 249.91 402.3C252.07 403.35 254.44 403.87 257.04 403.87C259.66 403.87 262.04 403.35 264.19 402.3C266.33 401.26 268.04 399.75 269.32 397.78C270.6 395.81 271.24 393.47 271.24 390.75V371.67ZM546.67 384H534.2V379.03H548.31V371.76H525.44V403.17H548.31V395.67H534.2V390.56H546.67V384Z" fill="black"/>
</svg>
