<svg width="521" height="562" viewBox="0 0 521 562" fill="none" xmlns="http://www.w3.org/2000/svg">
<path fill-rule="evenodd" clip-rule="evenodd" d="M147.02 66.2C170.34 25.7999 213.44 0.919922 260.09 0.919922C306.74 0.919922 349.84 25.7999 373.17 66.2L377.75 74.1499C378.31 75.1099 379.33 75.7 380.44 75.7H389.62C436.26 75.7 479.37 100.59 502.69 140.98C526.01 181.38 526.01 231.15 502.69 271.55L498.1 279.5C497.55 280.46 497.55 281.64 498.1 282.6L502.69 290.54C526.01 330.94 526.01 380.71 502.69 421.11C479.37 461.51 436.26 486.39 389.62 486.39H380.44C379.33 486.39 378.31 486.98 377.75 487.94L373.17 495.89C349.84 536.29 306.74 561.17 260.09 561.17C213.44 561.17 170.34 536.29 147.02 495.89L142.43 487.94C141.88 486.98 140.85 486.39 139.74 486.39H130.57C83.9201 486.39 40.82 461.51 17.49 421.11C-5.83 380.71 -5.83 330.94 17.49 290.54L22.0801 282.6C22.6401 281.64 22.6401 280.46 22.0801 279.5L17.49 271.55C-5.83 231.15 -5.83 181.38 17.49 140.98C40.82 100.59 83.9201 75.7 130.57 75.7H139.74C140.85 75.7 141.88 75.1099 142.43 74.1499L147.02 66.2ZM164.34 76.2L159.75 84.1499C155.62 91.2999 148 95.7 139.74 95.7H130.57C91.0701 95.7 54.5601 116.77 34.8101 150.98C15.0601 185.19 15.0601 227.34 34.8101 261.55L39.4 269.5C43.53 276.64 43.53 285.45 39.4 292.6L34.8101 300.54C15.0601 334.75 15.0601 376.9 34.8101 411.11C54.5601 445.32 91.0701 466.39 130.57 466.39H139.74C148 466.39 155.62 470.8 159.75 477.94L164.34 485.89C184.09 520.1 220.59 541.17 260.09 541.17C299.59 541.17 336.09 520.1 355.84 485.89L360.43 477.94C364.56 470.8 372.18 466.39 380.44 466.39H389.62C429.12 466.39 465.62 445.32 485.37 411.11C505.12 376.9 505.12 334.75 485.37 300.54L480.78 292.6C476.65 285.45 476.65 276.64 480.78 269.5L485.37 261.55C505.12 227.34 505.12 185.19 485.37 150.98C465.62 116.77 429.12 95.7 389.62 95.7H380.44C372.18 95.7 364.56 91.2999 360.43 84.1499L355.84 76.2C336.09 41.99 299.59 20.9199 260.09 20.9199C220.59 20.9199 184.09 41.99 164.34 76.2ZM231.36 406.12C234.36 406.68 237.21 407.65 239.91 409.01C242.61 410.37 244.95 412.12 246.92 414.26C248.89 416.4 250.33 418.9 251.22 421.75C252.12 424.6 252.24 427.76 251.58 431.23C250.75 435.65 248.81 439.06 245.77 441.47C242.72 443.89 239.16 445.26 235.07 445.58L247.31 470.38L227.18 466.59L215.8 440.12L211.38 463.61L194.87 460.49L206.02 401.34L231.36 406.12ZM219.62 419.9L217.54 430.94C218.47 431.48 219.49 431.98 220.59 432.43C221.69 432.88 222.89 433.23 224.19 433.47C226.78 433.96 229.04 433.86 230.97 433.15C232.9 432.45 234.07 431.04 234.46 428.92C234.92 426.51 234.35 424.74 232.77 423.62C231.18 422.49 229.09 421.69 226.5 421.2L219.62 419.9ZM303.87 425.48L306.3 437.82L282.85 442.43L284.74 452.04L311.27 446.82L314.05 460.93L271.03 469.39L259.41 410.33L302.43 401.86L305.11 415.53L278.58 420.75L280.42 430.09L303.87 425.48ZM355.14 396.5L362.09 406.99L342.17 420.19L347.58 428.35L370.12 413.41L378.07 425.39L341.52 449.61L308.26 399.44L344.81 375.22L352.5 386.82L329.96 401.77L335.22 409.7L355.14 396.5ZM281.25 242.18L294.08 279.63C296.79 287.55 292.57 296.16 284.65 298.88C280.23 300.39 275.58 299.74 271.87 297.49C269.2 295.9 267.92 292.73 268.72 289.72C269.2 287.89 269.68 286.11 269.68 286.11C272.07 277.19 270.82 267.68 266.2 259.68L266.18 259.65C263.2 254.5 258.98 250.25 253.98 247.24C252.68 246.48 252.12 244.91 252.64 243.51C253.92 239.99 256.71 237.07 260.52 235.76L265 234.23C271.68 231.94 278.96 235.5 281.25 242.18ZM333.31 277.64C332.03 282.32 328.53 286.3 323.59 288C315.68 290.71 307.06 286.49 304.34 278.57L294.77 250.63C294.71 250.46 294.66 250.3 294.61 250.14C292.65 243.59 296.2 236.62 302.72 234.38L307.2 232.85C313.88 230.56 321.15 234.12 323.44 240.8L333.02 268.75C334.04 271.73 334.08 274.81 333.31 277.64ZM307.76 138.75L304.44 153.2L268.28 144.9L271.59 130.45L281.49 132.72L288.32 102.95L278.42 100.68L281.74 86.2297L317.9 94.5298L314.59 108.98L304.69 106.71L297.86 136.48L307.76 138.75ZM184.61 416.89L176.31 429.17L158.59 417.2L147.22 434.02L133.3 424.61L167 374.74L202.36 398.63L194.06 410.92L172.62 396.43L166.89 404.91L184.61 416.89ZM228.95 86.3699L266.16 142.26L246.83 145.37L242.61 137.86L223.81 140.89L222.17 149.34L202.83 152.46L220.62 87.71L228.95 86.3699ZM229.1 113.83L226.55 126.8L235.59 125.34L229.1 113.83ZM232.19 358.94L139.43 235.55C136.49 231.64 135.22 226.72 135.91 221.88C136.6 217.03 139.18 212.66 143.09 209.72H143.1C147.01 206.78 151.93 205.51 156.77 206.2C161.62 206.88 165.99 209.47 168.93 213.38L204.95 261.29C205.48 262 206.45 262.23 207.25 261.84C208.04 261.45 208.45 260.55 208.21 259.69L191.12 197.41C189.8 192.63 190.44 187.53 192.9 183.22C195.35 178.91 199.41 175.76 204.19 174.44C208.97 173.13 214.07 173.77 218.38 176.22C222.69 178.67 225.85 182.74 227.16 187.52L241.53 239.84C241.72 240.54 241.58 241.29 241.15 241.87C240.72 242.46 240.05 242.82 239.32 242.84C231.4 243.19 224.28 248.61 222.11 256.68L210.3 300.77C209.73 302.91 210.89 305.12 212.96 305.88H212.97C214.45 306.41 216.09 306.3 217.49 305.57C218.89 304.84 219.91 303.56 220.32 302.04L231.78 259.27C233.03 254.62 237.8 251.86 242.45 253.11L242.49 253.12C243.5 253.39 244.49 253.73 245.45 254.12C249.76 255.89 253.5 258.84 256.22 262.64C256.28 262.74 256.35 262.83 256.41 262.92C256.81 263.49 257.18 264.07 257.53 264.68C259.56 268.2 260.68 272.13 260.84 276.12C260.93 278.59 260.66 281.09 260.01 283.52L247.33 330.86C246.62 333.48 248.16 336.18 250.78 336.91C252.08 337.27 253.47 337.1 254.64 336.43C255.81 335.76 256.67 334.65 257.02 333.35L264.69 304.71C271.13 309.5 279.74 311.14 287.9 308.34C294.09 306.22 298.92 301.93 301.82 296.61C302.22 295.88 302.89 295.34 303.69 295.12C304.49 294.9 305.34 295.01 306.06 295.43C312.14 298.95 319.66 299.92 326.84 297.46C331.32 295.93 335.09 293.25 337.93 289.88L341.4 299.08C348.16 316.98 340.69 337.12 323.89 346.28L281.18 369.57C264.48 378.67 243.62 374.15 232.19 358.94Z" fill="black"/>
</svg>
